<svg width="175" height="175" viewBox="0 0 175 175" fill="none" xmlns="http://www.w3.org/2000/svg">
<g filter="url(#filter0_d)">
<circle cx="87.5" cy="67.5" r="64.5" fill="#1890FF"/>
</g>
<path d="M104.609 48.1094C103.981 48.1094 103.469 47.5972 103.469 46.9688H101.188C101.188 48.8553 102.723 50.3906 104.609 50.3906V52.6719H106.891V50.3906H110.312V46.9688C110.312 45.0822 108.777 43.5469 106.891 43.5469H104.609C103.981 43.5469 103.469 43.0347 103.469 42.4062V41.2656H106.891C107.519 41.2656 108.031 41.7778 108.031 42.4062H110.312C110.312 40.5197 108.777 38.9844 106.891 38.9844V36.7031H104.609V38.9844H101.188V42.4062C101.188 44.2928 102.723 45.8281 104.609 45.8281H106.891C107.519 45.8281 108.031 46.3403 108.031 46.9688V48.1094H104.609Z" fill="#FCFCFC"/>
<path d="M118.297 64.0781V59.5156H93.2031V64.0781H88.6406V102.859H122.859V64.0781H118.297ZM95.4844 61.7969H116.016V64.0781H95.4844V61.7969ZM111.453 89.1719V100.578H100.047V89.1719H111.453ZM120.578 100.578H113.734V89.1719H116.016V86.8906H95.4844V89.1719H97.7656V100.578H90.9219V66.3594H120.578V100.578Z" fill="#FCFCFC"/>
<path d="M104.609 68.6406H93.2031V75.4844H104.609V68.6406ZM102.328 73.2031H95.4844V70.9219H102.328V73.2031Z" fill="#FCFCFC"/>
<path d="M118.297 68.6406H106.891V75.4844H118.297V68.6406ZM116.016 73.2031H109.172V70.9219H116.016V73.2031Z" fill="#FCFCFC"/>
<path d="M104.609 77.7656H93.2031V84.6094H104.609V77.7656ZM102.328 82.3281H95.4844V80.0469H102.328V82.3281Z" fill="#FCFCFC"/>
<path d="M118.297 77.7656H106.891V84.6094H118.297V77.7656ZM116.016 82.3281H109.172V80.0469H116.016V82.3281Z" fill="#FCFCFC"/>
<path d="M81.7969 73.2031H56.7031V77.7656H52.1406V102.859H86.3594V77.7656H81.7969V73.2031ZM58.9844 75.4844H79.5156V77.7656H58.9844V75.4844ZM74.9531 93.7344V100.578H63.5469V93.7344H74.9531ZM84.0781 100.578H77.2344V93.7344H79.5156V91.4531H58.9844V93.7344H61.2656V100.578H54.4219V80.0469H84.0781V100.578Z" fill="#FCFCFC"/>
<path d="M68.1094 82.3281H56.7031V89.1719H68.1094V82.3281ZM65.8281 86.8906H58.9844V84.6094H65.8281V86.8906Z" fill="#FCFCFC"/>
<path d="M81.7969 82.3281H70.3906V89.1719H81.7969V82.3281ZM79.5156 86.8906H72.6719V84.6094H79.5156V86.8906Z" fill="#FCFCFC"/>
<path d="M78.3748 55.4253L85.2185 62.2691L95.5378 51.9499C97.8145 55.1425 101.539 57.2344 105.75 57.2344C112.668 57.2344 118.297 51.6054 118.297 44.6875C118.297 37.7696 112.668 32.1406 105.75 32.1406C98.8319 32.1406 93.2029 37.7696 93.2029 44.6875C93.2029 46.5513 93.6227 48.3158 94.3549 49.907L85.2185 59.0434L78.3748 52.1997L60.459 70.1155L62.0718 71.7283L78.3748 55.4253ZM105.75 34.4219C111.41 34.4219 116.015 39.0277 116.015 44.6875C116.015 50.3473 111.41 54.9531 105.75 54.9531C100.09 54.9531 95.4842 50.3473 95.4842 44.6875C95.4842 39.0277 100.09 34.4219 105.75 34.4219Z" fill="#FCFCFC"/>
<defs>
<filter id="filter0_d" x="0" y="0" width="175" height="175" filterUnits="userSpaceOnUse" color-interpolation-filters="sRGB">
<feFlood flood-opacity="0" result="BackgroundImageFix"/>
<feColorMatrix in="SourceAlpha" type="matrix" values="0 0 0 0 0 0 0 0 0 0 0 0 0 0 0 0 0 0 127 0"/>
<feOffset dy="20"/>
<feGaussianBlur stdDeviation="11.5"/>
<feColorMatrix type="matrix" values="0 0 0 0 0.0941176 0 0 0 0 0.564706 0 0 0 0 1 0 0 0 0.25 0"/>
<feBlend mode="normal" in2="BackgroundImageFix" result="effect1_dropShadow"/>
<feBlend mode="normal" in="SourceGraphic" in2="effect1_dropShadow" result="shape"/>
</filter>
</defs>
</svg>
