<svg width="70" height="70" viewBox="0 0 70 70" fill="none" xmlns="http://www.w3.org/2000/svg">
<g filter="url(#filter0_d)">
<circle cx="35" cy="31" r="23" transform="rotate(-180 35 31)" fill="url(#paint0_linear)"/>
<path fill-rule="evenodd" clip-rule="evenodd" d="M30.6922 24.2745C30.7854 24.3674 30.8594 24.4779 30.9098 24.5995C30.9603 24.721 30.9863 24.8514 30.9863 24.983C30.9863 25.1147 30.9603 25.245 30.9098 25.3666C30.8594 25.4882 30.7854 25.5986 30.6922 25.6916L25.3942 30.9876L30.6922 36.2837C30.7853 36.3767 30.8591 36.4872 30.9095 36.6087C30.9598 36.7303 30.9857 36.8606 30.9857 36.9922C30.9857 37.1238 30.9598 37.2541 30.9095 37.3757C30.8591 37.4972 30.7853 37.6077 30.6922 37.7007C30.5992 37.7938 30.4887 37.8676 30.3672 37.918C30.2456 37.9683 30.1153 37.9942 29.9837 37.9942C29.8521 37.9942 29.7218 37.9683 29.6002 37.918C29.4787 37.8676 29.3682 37.7938 29.2752 37.7007L23.2706 31.6962C23.1774 31.6032 23.1034 31.4928 23.053 31.3712C23.0025 31.2496 22.9766 31.1192 22.9766 30.9876C22.9766 30.856 23.0025 30.7256 23.053 30.6041C23.1034 30.4825 23.1774 30.372 23.2706 30.2791L29.2752 24.2745C29.3681 24.1813 29.4786 24.1073 29.6001 24.0569C29.7217 24.0064 29.8521 23.9805 29.9837 23.9805C30.1153 23.9805 30.2457 24.0064 30.3673 24.0569C30.4889 24.1073 30.5993 24.1813 30.6922 24.2745Z" fill="white"/>
<path fill-rule="evenodd" clip-rule="evenodd" d="M23.9795 30.9866C23.9795 30.7212 24.0849 30.4666 24.2726 30.279C24.4603 30.0913 24.7148 29.9858 24.9803 29.9858L45.9963 29.9858C46.2617 29.9858 46.5163 30.0913 46.704 30.279C46.8917 30.4666 46.9971 30.7212 46.9971 30.9866C46.9971 31.252 46.8917 31.5066 46.704 31.6943C46.5163 31.8819 46.2617 31.9874 45.9963 31.9874L24.9803 31.9874C24.7148 31.9874 24.4603 31.8819 24.2726 31.6943C24.0849 31.5066 23.9795 31.252 23.9795 30.9866Z" fill="white"/>
</g>
<defs>
<filter id="filter0_d" x="0" y="0" width="70" height="70" filterUnits="userSpaceOnUse" color-interpolation-filters="sRGB">
<feFlood flood-opacity="0" result="BackgroundImageFix"/>
<feColorMatrix in="SourceAlpha" type="matrix" values="0 0 0 0 0 0 0 0 0 0 0 0 0 0 0 0 0 0 127 0"/>
<feOffset dy="4"/>
<feGaussianBlur stdDeviation="6"/>
<feColorMatrix type="matrix" values="0 0 0 0 0.145098 0 0 0 0 0.670588 0 0 0 0 0.643137 0 0 0 0.5 0"/>
<feBlend mode="normal" in2="BackgroundImageFix" result="effect1_dropShadow"/>
<feBlend mode="normal" in="SourceGraphic" in2="effect1_dropShadow" result="shape"/>
</filter>
<linearGradient id="paint0_linear" x1="15.2583" y1="26.9412" x2="58.1549" y2="27.7042" gradientUnits="userSpaceOnUse">
<stop stop-color="#39BC90"/>
<stop offset="1" stop-color="#25ABA4"/>
</linearGradient>
</defs>
</svg>
