<svg width="98" height="98" viewBox="0 0 98 98" fill="none" xmlns="http://www.w3.org/2000/svg">
<circle cx="49" cy="49" r="49" fill="url(#paint0_linear)"/>
<g clip-path="url(#clip0)">
<path d="M46.8396 39.7421C46.8396 40.232 46.4424 40.6292 45.9525 40.6292C45.4626 40.6292 45.0654 40.232 45.0654 39.7421C45.0654 39.2522 45.4626 38.855 45.9525 38.855C46.4424 38.855 46.8396 39.2522 46.8396 39.7421Z" fill="white"/>
<path d="M37.9685 39.7421C37.9685 40.232 37.5713 40.6292 37.0814 40.6292C36.5915 40.6292 36.1943 40.232 36.1943 39.7421C36.1943 39.2522 36.5915 38.855 37.0814 38.855C37.5713 38.855 37.9685 39.2522 37.9685 39.7421Z" fill="white"/>
<path d="M41.5171 48.6133C43.4741 48.6133 45.0655 47.0219 45.0655 45.0649H43.2913C43.2913 46.0434 42.4956 46.8391 41.5171 46.8391C40.5386 46.8391 39.7429 46.0434 39.7429 45.0649H37.9688C37.9688 47.0219 39.5602 48.6133 41.5171 48.6133Z" fill="white"/>
<path d="M71.1578 22.0005H55.71V50.3873H77.0001V27.8432L71.1578 22.0005ZM71.6775 25.0291L73.9715 27.323H71.6775V25.0291ZM57.4841 48.6131V23.7747H69.9034V29.0972H75.2259V48.6131H57.4841Z" fill="white"/>
<path d="M65.4681 41.1495L63.4341 39.115L62.1797 40.3694L65.4681 43.6579L74.0791 35.0469L72.8247 33.7925L65.4681 41.1495Z" fill="white"/>
<path d="M71.678 45.0646H61.033V37.0808H68.1297V35.3066H59.2588V46.8388H73.4522V39.7421H71.678V45.0646Z" fill="white"/>
<path d="M59.2588 25.5488H61.033V27.323H59.2588V25.5488Z" fill="white"/>
<path d="M62.8066 25.5488H68.1292V27.323H62.8066V25.5488Z" fill="white"/>
<path d="M59.2588 29.0972H61.033V30.8714H59.2588V29.0972Z" fill="white"/>
<path d="M62.8066 29.0972H68.1292V30.8714H62.8066V29.0972Z" fill="white"/>
<path d="M62.8068 61.0319H66.3551C66.8446 61.0319 67.2422 61.4295 67.2422 61.919H69.0164C69.0164 60.4519 67.8222 59.2577 66.3551 59.2577H65.468V58.3706H63.6939V59.2577H62.8068C61.3393 59.2577 60.1455 60.4519 60.1455 61.919V62.806C60.1455 64.2735 61.3393 65.4673 62.8068 65.4673H66.3551C66.8446 65.4673 67.2422 65.8649 67.2422 66.3544V67.2415C67.2422 67.7314 66.8446 68.1286 66.3551 68.1286H62.8068C62.3169 68.1286 61.9197 67.7314 61.9197 67.2415H60.1455C60.1455 68.709 61.3393 69.9027 62.8068 69.9027H63.6939V70.7898H65.468V69.9027H66.3551C67.8222 69.9027 69.0164 68.709 69.0164 67.2415V66.3544C69.0164 64.8873 67.8222 63.6931 66.3551 63.6931H62.8068C62.3169 63.6931 61.9197 63.2959 61.9197 62.806V61.919C61.9197 61.4295 62.3169 61.0319 62.8068 61.0319Z" fill="white"/>
<path d="M73.9281 59.5071L75.1062 57.5432L71.6181 54.0551L69.6542 55.2333C69.0014 54.8781 68.314 54.5926 67.6024 54.3825L67.0479 52.1618H62.1139L61.5595 54.3834C60.8474 54.5935 60.1609 54.8789 59.5077 55.2341L57.5438 54.056L56.5796 55.0201C56.4003 54.9669 56.2227 54.9084 56.0412 54.872L47.7265 53.2096V50.424C48.7154 49.42 49.4747 48.1816 49.9239 46.7968C52.1689 46.5794 53.9361 44.7043 53.9361 42.4038V34.7627C53.9361 28.0155 48.8185 22.4206 42.2857 22.0242C39.2247 21.8349 36.2182 22.7827 33.8237 24.6816C31.6472 26.4099 29.2696 28.2178 26.6439 29.7273L25.0976 30.6183L25.7434 31.4253C26.6954 32.6151 27.835 33.5979 29.0977 34.3616V42.4038C29.0977 44.6831 30.832 46.5439 33.0449 46.7899C33.4772 48.1851 34.2526 49.4642 35.3073 50.5015V53.2087L26.9926 54.8711C24.0996 55.4503 22.001 58.0123 22.001 60.9612V77.0002H61.0328V74.5928C61.2082 74.6547 61.3806 74.7266 61.5595 74.7791L62.1139 77.0002H67.0479L67.6024 74.7791C68.3149 74.569 69.0014 74.2831 69.6542 73.9284L71.6181 75.1065L75.1062 71.6184L73.9281 69.6545C74.2832 69.0017 74.5687 68.3139 74.7792 67.6027L77.0004 67.0482V62.1142L74.7792 61.5598C74.5687 60.8473 74.2841 60.1607 73.9281 59.5071ZM48.4273 55.1575L46.447 60.4384L42.9974 57.5636L47.0257 54.8781L48.4273 55.1575ZM40.5124 64.581H42.5218L44.0421 75.2261H38.9921L40.5124 64.581ZM42.7427 62.8068H40.2906L39.1801 60.5865L41.5169 58.6395L43.8524 60.5857L42.7427 62.8068ZM37.0815 51.8551C38.4181 52.6313 39.929 53.0489 41.5078 53.0489C41.7057 53.0489 41.9046 53.0428 42.1051 53.0303C43.5037 52.9397 44.8079 52.5079 45.9523 51.8239V53.4617L41.5169 56.4183L37.0815 53.4617V51.8551ZM50.328 44.9209C50.3644 44.586 50.3878 44.2482 50.3878 43.9043V39.9059C51.4174 40.2732 52.1619 41.2491 52.1619 42.4038C52.1619 43.5811 51.3892 44.5704 50.328 44.9209ZM34.9265 26.072C36.9775 24.4451 39.5591 23.6403 42.1787 23.7958C47.7767 24.1345 52.1619 28.9524 52.1619 34.7627V38.8789C51.6439 38.4865 51.0466 38.1932 50.3878 38.0589V37.0813C50.3878 35.6142 49.1936 34.4201 47.7265 34.4201H35.6646C32.675 34.4201 29.8682 33.2211 27.8164 31.1C30.4274 29.5671 32.7755 27.7803 34.9265 26.072ZM32.646 35.8352V38.0581C31.9868 38.1932 31.3899 38.4856 30.8718 38.878V35.2552C31.4475 35.4891 32.0383 35.687 32.646 35.8352ZM30.8718 42.4038C30.8718 41.2491 31.616 40.2732 32.646 39.9059V44.178C32.646 44.4249 32.6638 44.6696 32.6841 44.9135C31.6346 44.557 30.8718 43.5733 30.8718 42.4038ZM34.4202 36.1349C34.8317 36.1747 35.2466 36.1942 35.6646 36.1942H47.7265C48.216 36.1942 48.6136 36.5919 48.6136 37.0813V43.9043C48.6136 47.7879 45.7046 51.0196 41.9903 51.2591C39.997 51.3865 38.1102 50.7125 36.6643 49.3572C35.2168 48.0005 34.4202 46.161 34.4202 44.178V36.1349ZM36.0072 54.8772L40.0355 57.5627L36.5855 60.4375L34.6056 55.1566L36.0072 54.8772ZM23.7752 60.9612C23.7752 58.8544 25.2743 57.0252 27.3413 56.6115L32.8435 55.5109L35.8032 63.4016L37.7806 61.753L38.8253 63.8421L37.1984 75.2261H30.8718V61.9198H29.0977V75.2261H23.7752V60.9612ZM45.8349 75.2261L44.2089 63.8429L45.2541 61.7539L47.2314 63.4024L50.1907 55.5118L55.1052 56.4946L54.0557 57.5441L55.2338 59.508C54.8791 60.1607 54.5932 60.8481 54.3831 61.5598L52.1619 62.1142V67.0482L54.3831 67.6027C54.5932 68.3148 54.8791 69.0017 55.2338 69.6545L54.0557 71.6184L57.5438 75.1065L59.2586 74.0774V75.2261H45.8349ZM75.2262 65.6626L73.3225 66.1391L73.1965 66.6614C72.9799 67.558 72.6251 68.4126 72.1426 69.201L71.8624 69.6597L72.8733 71.3433L71.3435 72.8736L69.6598 71.8622L69.2011 72.1429C68.4115 72.6254 67.5573 72.9793 66.6611 73.1968L66.1388 73.3224L65.6623 75.2261H63.4996L63.0231 73.3224L62.5007 73.1968C61.6041 72.9802 60.7495 72.6254 59.9612 72.1429L59.5025 71.8622L57.8188 72.8736L56.2885 71.3433L57.2999 69.6597L57.0197 69.201C56.5367 68.4118 56.1828 67.5572 55.9658 66.6614L55.8398 66.1391L53.9361 65.6626V63.4999L55.8398 63.0234L55.9658 62.501C56.182 61.604 56.5367 60.7498 57.0197 59.9611L57.2999 59.5028L56.2885 57.8187L57.8188 56.2888L59.5025 57.2998L59.9612 57.0196C60.7504 56.537 61.605 56.1831 62.5007 55.9657L63.0231 55.8397L63.4996 53.936H65.6623L66.1388 55.8397L66.6611 55.9657C67.5582 56.1823 68.4123 56.537 69.2011 57.0196L69.6598 57.2998L71.3435 56.2888L72.8733 57.8187L71.8624 59.5028L72.1426 59.9611C72.6251 60.7507 72.979 61.6049 73.1965 62.501L73.3225 63.0234L75.2262 63.4999V65.6626Z" fill="white"/>
</g>
<defs>
<linearGradient id="paint0_linear" x1="6.94167" y1="40.3529" x2="98.33" y2="41.9785" gradientUnits="userSpaceOnUse">
<stop stop-color="#39BC90"/>
<stop offset="1" stop-color="#25ABA4"/>
</linearGradient>
<clipPath id="clip0">
<rect width="55" height="55" fill="white" transform="translate(22 22)"/>
</clipPath>
</defs>
</svg>
