<svg width="98" height="98" viewBox="0 0 98 98" fill="none" xmlns="http://www.w3.org/2000/svg">
<circle cx="49" cy="49" r="49" fill="url(#paint0_linear)"/>
<path d="M75.1607 45.8976L70.0987 32.6222C69.9508 32.233 69.7267 31.8773 69.4394 31.5759C69.1522 31.2745 68.8077 31.0335 68.426 30.8671C68.0389 30.6948 67.6213 30.6016 67.1977 30.593C66.7742 30.5843 66.3531 30.6603 65.9593 30.8166C65.5667 30.9687 65.2089 31.1985 64.9072 31.4922C64.6056 31.7859 64.3664 32.1375 64.2039 32.5259C64.0423 32.9072 63.9594 33.3173 63.9601 33.7315C63.9608 34.1457 64.0451 34.5555 64.208 34.9363L66.5671 40.4923C66.1483 40.4492 65.7251 40.4945 65.3249 40.6252C64.9246 40.7559 64.5563 40.9692 64.2437 41.2512C63.931 41.5332 63.6811 41.8777 63.5099 42.2623C63.3387 42.647 63.2502 43.0633 63.25 43.4843V50.1505C63.2491 50.8247 63.0922 51.4895 62.7914 52.0929C61.401 54.882 60.6756 57.9552 60.6719 61.0716V63.2499C60.444 63.2499 60.2254 63.3405 60.0642 63.5016C59.903 63.6628 59.8125 63.8814 59.8125 64.1093V75.2812H61.5312V64.9687H71.8438V75.2812H73.5625V64.1093C73.5625 63.8814 73.472 63.6628 73.3108 63.5016C73.1496 63.3405 72.931 63.2499 72.7031 63.2499H72.3755L75.0396 56.8338C76.4676 53.3362 76.511 49.4261 75.1607 45.8976ZM73.4501 56.1805L70.5143 63.2499H62.3906V61.0716C62.394 58.222 63.0574 55.4119 64.3287 52.8616C64.7485 52.0194 64.9676 51.0915 64.9688 50.1505V43.4843C64.9692 43.1473 65.1017 42.8239 65.3378 42.5835C65.5738 42.343 65.8947 42.2046 66.2316 42.198C66.5686 42.1914 66.8947 42.317 67.14 42.5479C67.3854 42.7789 67.5305 43.0968 67.5443 43.4335C67.5453 43.4681 67.5469 53.7968 67.5469 53.7968H69.2656V43.4843C69.2656 43.4244 69.2634 43.365 69.2599 43.3059C69.2332 42.6668 69.0913 42.0379 68.841 41.4493L65.7902 34.2652C65.7176 34.0955 65.68 33.9129 65.6798 33.7283C65.6795 33.5437 65.7165 33.361 65.7886 33.191C65.8628 33.0146 65.972 32.8549 66.1094 32.7216C66.2469 32.5884 66.4098 32.4842 66.5885 32.4154C66.771 32.343 66.9661 32.3078 67.1624 32.3118C67.3587 32.3158 67.5523 32.359 67.7316 32.4389C67.905 32.514 68.0617 32.623 68.1924 32.7595C68.3231 32.896 68.4253 33.0573 68.4928 33.2338L73.5549 46.5093C74.7493 49.6294 74.7119 53.087 73.4501 56.1805Z" fill="white"/>
<path d="M38.3283 63.2499V61.0716C38.3246 57.9552 37.5992 54.882 36.2088 52.0929C35.908 51.4895 35.7511 50.8247 35.7502 50.1505V43.4843C35.75 43.0633 35.6615 42.647 35.4903 42.2623C35.3192 41.8777 35.0692 41.5332 34.7565 41.2512C34.4439 40.9692 34.0756 40.7559 33.6754 40.6252C33.2752 40.4945 32.852 40.4492 32.4331 40.4923L34.7926 34.9356C34.9553 34.5548 35.0396 34.1452 35.0402 33.7311C35.0409 33.317 34.9579 32.9071 34.7963 32.5259C34.6338 32.1375 34.3946 31.7859 34.093 31.4922C33.7913 31.1985 33.4335 30.9687 33.0409 30.8166C32.6471 30.6603 32.2261 30.5843 31.8025 30.593C31.3789 30.6016 30.9613 30.6948 30.5742 30.8671C30.1926 31.0335 29.848 31.2744 29.5608 31.5758C29.2736 31.8772 29.0494 32.2329 28.9015 32.6221L23.8395 45.8976C22.4888 49.4282 22.5328 53.3405 23.9627 56.8397L26.6247 63.2499H26.2971C26.0692 63.2499 25.8506 63.3405 25.6894 63.5016C25.5283 63.6628 25.4377 63.8814 25.4377 64.1093V75.2812H27.1565V64.9687H37.469V75.2812H39.1877V64.1093C39.1877 63.8814 39.0972 63.6628 38.936 63.5016C38.7749 63.3405 38.5563 63.2499 38.3283 63.2499ZM25.5523 56.1864C24.2888 53.0917 24.2504 49.6321 25.4449 46.5101L30.5074 33.2344C30.575 33.0579 30.6771 32.8967 30.8078 32.7602C30.9385 32.6237 31.0952 32.5147 31.2686 32.4395C31.448 32.3597 31.6415 32.3165 31.8378 32.3125C32.0341 32.3084 32.2293 32.3437 32.4118 32.4161C32.5904 32.4849 32.7534 32.589 32.8908 32.7223C33.0283 32.8556 33.1374 33.0152 33.2116 33.1917C33.2836 33.3614 33.3206 33.5439 33.3204 33.7283C33.3201 33.9126 33.2827 34.0951 33.2102 34.2646L30.1595 41.4494C29.9091 42.038 29.7672 42.6669 29.7405 43.306C29.7369 43.365 29.7346 53.7968 29.7346 53.7968H31.4533C31.4533 53.7968 31.455 43.4681 31.4559 43.4335C31.4697 43.0968 31.6148 42.7789 31.8602 42.5479C32.1056 42.317 32.4317 42.1914 32.7686 42.198C33.1055 42.2046 33.4264 42.343 33.6625 42.5835C33.8985 42.8239 34.031 43.1473 34.0315 43.4843V50.1505C34.0327 51.0915 34.2517 52.0194 34.6715 52.8616C35.9429 55.4119 36.6062 58.222 36.6096 61.0716V63.2499H28.4859L25.5523 56.1864Z" fill="white"/>
<path d="M42.625 39.1875H44.3438V40.9062H42.625V39.1875Z" fill="white"/>
<path d="M46.0625 39.1875H47.7812V40.9062H46.0625V39.1875Z" fill="white"/>
<path d="M42.625 42.625H44.3438V44.3438H42.625V42.625Z" fill="white"/>
<path d="M53.7969 49.5H55.5156V51.2187H53.7969V49.5Z" fill="white"/>
<path d="M50.3594 49.5H52.0781V51.2187H50.3594V49.5Z" fill="white"/>
<path d="M42.625 46.0625H44.3438V47.7812H42.625V46.0625Z" fill="white"/>
<path d="M42.625 49.5H44.3438V51.2187H42.625V49.5Z" fill="white"/>
<path d="M40.0469 54.6563H58.0938C58.3217 54.6563 58.5403 54.5658 58.7014 54.4046C58.8626 54.2434 58.9531 54.0248 58.9531 53.7969V47.7813C59.181 47.7813 59.3996 47.6908 59.5608 47.5296C59.722 47.3684 59.8125 47.1498 59.8125 46.9219V41.7657C59.8125 41.6425 59.7861 41.5208 59.7349 41.4088C59.6838 41.2968 59.6092 41.1971 59.5162 41.1164C59.4232 41.0357 59.3139 40.976 59.1958 40.9412C59.0776 40.9065 58.9534 40.8975 58.8315 40.9149L46.8003 42.6336C46.5955 42.6629 46.4081 42.7651 46.2726 42.9214C46.1371 43.0776 46.0625 43.2776 46.0625 43.4844V46.9219C46.0625 47.1498 46.153 47.3684 46.3142 47.5296C46.4754 47.6908 46.694 47.7813 46.9219 47.7813V52.9376H40.9063V37.4688H49.5V40.0469H51.2188V37.4688C51.4467 37.4688 51.6653 37.3783 51.8264 37.2171C51.9876 37.0559 52.0781 36.8373 52.0781 36.6094V31.4532C52.0781 31.33 52.0517 31.2083 52.0006 31.0963C51.9494 30.9843 51.8748 30.8846 51.7818 30.8039C51.6888 30.7232 51.5795 30.6635 51.4614 30.6287C51.3433 30.5939 51.219 30.585 51.0972 30.6024L39.0659 32.3211C38.8611 32.3504 38.6738 32.4526 38.5382 32.6089C38.4027 32.7651 38.3281 32.9651 38.3281 33.1719V36.6094C38.3281 36.8373 38.4187 37.0559 38.5798 37.2171C38.741 37.3783 38.9596 37.4688 39.1875 37.4688V53.7969C39.1875 54.0248 39.278 54.2434 39.4392 54.4046C39.6004 54.5658 39.819 54.6563 40.0469 54.6563ZM47.7813 44.2297L58.0938 42.7565V46.0626H47.7813V44.2297ZM48.6406 47.7813H57.2344V52.9376H48.6406V47.7813ZM40.0469 33.9172L50.3594 32.444V35.7501H40.0469V33.9172Z" fill="white"/>
<path d="M49.5005 63.2497C46.2254 63.2509 43.0062 62.4013 40.1582 60.7842L39.3076 62.2773C42.4152 64.0409 45.9273 64.968 49.5005 64.968C53.0736 64.968 56.5857 64.0409 59.6933 62.2773L58.8427 60.7842C55.9947 62.4013 52.7755 63.2509 49.5005 63.2497Z" fill="white"/>
<path d="M49.5001 25.4374C52.0353 25.4288 54.546 25.9342 56.8805 26.9232C59.2149 27.9122 61.3246 29.3642 63.0821 31.1915L64.3166 29.9958C62.3936 28.0101 60.091 26.4311 57.5457 25.3527C55.0004 24.2744 52.2644 23.7187 49.5001 23.7188C46.7358 23.7187 43.9997 24.2744 41.4544 25.3527C38.9091 26.4311 36.6066 28.0101 34.6836 29.9958L35.9181 31.1915C37.6756 29.3642 39.7853 27.9122 42.1197 26.9232C44.4541 25.9342 46.9648 25.4288 49.5001 25.4374Z" fill="white"/>
<path d="M42.2635 59.9373L42.988 58.3787C42.4283 58.1183 41.8846 57.8247 41.3599 57.4995L40.4541 58.9605C41.0372 59.3219 41.6414 59.6481 42.2635 59.9373Z" fill="white"/>
<path d="M49.5002 59.8121C47.8116 59.8141 46.1342 59.5391 44.5347 58.9982L43.9834 60.626C46.5577 61.4952 49.3012 61.7428 51.9895 61.3488C54.6779 60.9547 57.2348 59.9301 59.4514 58.3587L58.4552 56.958C55.8416 58.8215 52.71 59.8195 49.5002 59.8121Z" fill="white"/>
<path d="M46.7871 27.3692L47.0565 29.0664C47.8647 28.9388 48.6817 28.8748 49.4999 28.875C53.4329 28.8691 57.2194 30.3672 60.0837 33.0624L61.26 31.8092C58.0773 28.8144 53.8701 27.1497 49.4999 27.1563C48.5915 27.1562 47.6844 27.2274 46.7871 27.3692Z" fill="white"/>
<path d="M63.25 66.6875H64.9688V68.4062H63.25V66.6875Z" fill="white"/>
<path d="M34.0312 66.6875H35.75V68.4062H34.0312V66.6875Z" fill="white"/>
<defs>
<linearGradient id="paint0_linear" x1="6.94167" y1="40.3529" x2="98.33" y2="41.9785" gradientUnits="userSpaceOnUse">
<stop stop-color="#39BC90"/>
<stop offset="1" stop-color="#25ABA4"/>
</linearGradient>
</defs>
</svg>
