<svg width="98" height="98" viewBox="0 0 98 98" fill="none" xmlns="http://www.w3.org/2000/svg">
<circle cx="49" cy="49" r="49" fill="url(#paint0_linear)"/>
<g clip-path="url(#clip0)">
<path d="M66.5046 64.026C66.06 64.026 65.6997 64.3864 65.6997 64.8309V67.3024H32.5017V52.4338C34.0564 52.4351 36.3137 52.4363 39.5973 52.4373C39.6679 52.4373 39.7371 52.4659 39.787 52.516L43.229 55.9579C43.8949 56.6686 45.1767 56.1335 45.1442 55.1648V52.4373H45.1559C46.7833 52.4373 48.1073 51.1134 48.1073 49.4859V29.3448C48.1073 27.7173 46.7833 26.3933 45.1559 26.3933H32.5016V24.9514C32.5016 24.2117 33.1034 23.6098 33.8432 23.6098H54.8253C55.2699 23.6098 55.6302 23.2494 55.6302 22.8049C55.6302 22.3604 55.2699 22 54.8253 22H33.8433C32.2159 22 30.8919 23.324 30.8919 24.9514V26.3933H29.3079C27.6805 26.3933 26.3564 27.7173 26.3564 29.3448V32.75C26.3564 33.1945 26.7167 33.5549 27.1614 33.5549C27.606 33.5549 27.9663 33.1945 27.9663 32.75V29.3448C27.9663 28.605 28.568 28.0032 29.3079 28.0032H45.156C45.8957 28.0032 46.4976 28.6049 46.4976 29.3448V49.4859C46.4976 50.2256 45.8958 50.8275 45.156 50.8275H44.7687C44.0881 50.8275 43.5344 51.3812 43.5344 52.0618V53.9867L40.9254 51.3777C40.5707 51.0229 40.099 50.8275 39.5975 50.8275C36.8307 50.8267 29.6818 50.8232 29.1594 50.8184C28.4774 50.7442 27.9664 50.1758 27.9664 49.486V36.5722C27.9664 36.1277 27.6061 35.7673 27.1615 35.7673C26.7168 35.7673 26.3566 36.1277 26.3566 36.5722V49.4859C26.3566 51.023 27.5104 52.2862 29.0405 52.4242V52.4239C29.0979 52.4271 29.3343 52.4297 30.8919 52.432V74.0486C30.8919 75.676 32.216 77 33.8433 77H64.3582C65.9856 77 67.3096 75.676 67.3096 74.0486V64.8309C67.3095 64.3863 66.9492 64.026 66.5046 64.026ZM65.6997 74.0486C65.6997 74.7883 65.0979 75.3902 64.3581 75.3902H33.8433C33.1036 75.3902 32.5017 74.7884 32.5017 74.0486V68.9123H65.6997V74.0486Z" fill="white"/>
<path d="M46.5051 73.1709H51.697C52.1417 73.1709 52.5019 72.8105 52.5019 72.3659C52.5019 71.9214 52.1417 71.561 51.697 71.561H46.5051C46.0605 71.561 45.7002 71.9214 45.7002 72.3659C45.7002 72.8105 46.0605 73.1709 46.5051 73.1709Z" fill="white"/>
<path d="M69.6913 35.7673H67.3095V24.9514C67.3094 23.324 65.9854 22 64.358 22H59.0024C58.5578 22 58.1975 22.3604 58.1975 22.8049C58.1975 23.2494 58.5578 23.6098 59.0024 23.6098H64.358C65.0977 23.6098 65.6996 24.2116 65.6996 24.9514V35.7673H53.843C52.2157 35.7673 50.8916 37.0913 50.8916 38.7187V58.8599C50.8916 60.4873 52.2157 61.8113 53.843 61.8113H53.8548V64.6092C53.8226 65.5782 55.1039 66.1127 55.77 65.4024L59.2825 61.8898C59.3331 61.8392 59.4006 61.8113 59.472 61.8113H69.6912C71.3185 61.8113 72.6426 60.4873 72.6426 58.8599V38.7187C72.6427 37.0913 71.3186 35.7673 69.6913 35.7673ZM71.0328 58.8599C71.0328 59.5996 70.431 60.2015 69.6912 60.2015H59.4719C58.9703 60.2016 58.4988 60.397 58.1441 60.7516L55.4647 63.4311V61.4356C55.4647 60.7552 54.911 60.2016 54.2304 60.2014H53.8429C53.1032 60.2014 52.5013 59.5996 52.5013 58.8598V38.7187C52.5013 37.979 53.1031 37.3771 53.8429 37.3771H69.6912C70.4309 37.3771 71.0328 37.9789 71.0328 38.7187V58.8599Z" fill="white"/>
<path d="M39.2353 42.8477H35.2471C35.141 42.8477 35.0665 42.9529 35.1015 43.053C35.4109 43.9378 36.2509 44.5731 37.2413 44.5731C38.2316 44.5731 39.0716 43.9378 39.381 43.053C39.4159 42.9529 39.3414 42.8477 39.2353 42.8477Z" fill="white"/>
<path d="M39.8017 38.7456C39.3125 38.7456 38.916 39.1422 38.916 39.6313C38.916 40.1204 39.3126 40.517 39.8017 40.517C40.2908 40.517 40.6874 40.1205 40.6874 39.6313C40.6874 39.1421 40.2909 38.7456 39.8017 38.7456Z" fill="white"/>
<path d="M35.5663 39.6313C35.5663 39.1421 35.1697 38.7456 34.6806 38.7456C34.1914 38.7456 33.7949 39.1422 33.7949 39.6313C33.7949 40.1204 34.1915 40.517 34.6806 40.517C35.1697 40.5171 35.5663 40.1205 35.5663 39.6313Z" fill="white"/>
<path d="M41.9419 30.4268H32.609C31.5013 30.4268 30.6001 31.3279 30.6001 32.4357V37.8245C29.716 37.9235 29.0264 38.6757 29.0264 39.5859V40.1988C29.0264 41.408 29.7909 42.4729 30.8978 42.8806C31.2378 43.998 31.8564 45.0059 32.7025 45.8153L34.0671 47.1205C34.9668 47.9811 36.121 48.4113 37.2756 48.4112C38.4299 48.4112 39.5845 47.9809 40.484 47.1205L41.8487 45.8153C42.6947 45.0058 43.3134 43.998 43.6533 42.8807C44.7602 42.473 45.5248 41.4081 45.5248 40.1988V39.5859C45.5248 38.6757 44.8351 37.9235 43.951 37.8245V32.4357C43.9509 31.3279 43.0496 30.4268 41.9419 30.4268ZM32.2114 32.4357C32.2114 32.2164 32.3897 32.0381 32.609 32.0381H41.9419C42.1612 32.0381 42.3396 32.2164 42.3396 32.4357V34.676C40.7724 33.984 39.0431 33.6221 37.2754 33.6221C35.5078 33.6221 33.7786 33.984 32.2113 34.676V32.4357H32.2114ZM43.9133 40.1988C43.9133 40.7929 43.4901 41.3071 42.9069 41.4217C42.5572 41.4904 42.2779 41.7582 42.1951 42.1041C41.9618 43.0795 41.4568 43.9602 40.7348 44.6508L39.37 45.9561C38.1954 47.0796 36.3553 47.0795 35.1809 45.9561L33.8162 44.6508C33.0941 43.9602 32.5891 43.0795 32.3557 42.1038C32.2729 41.7582 31.9936 41.4904 31.644 41.4217C31.0608 41.3072 30.6376 40.7929 30.6376 40.1988V39.5859C30.6376 39.497 30.7099 39.4247 30.7987 39.4247H31.4057C31.8507 39.4247 32.2113 39.064 32.2113 38.6191V36.4661C33.7374 35.6594 35.4816 35.2336 37.2754 35.2336C39.0693 35.2336 40.8137 35.6595 42.3396 36.4662V38.6192C42.3396 39.0641 42.7002 39.4248 43.1453 39.4248H43.7522C43.841 39.4248 43.9133 39.4971 43.9133 39.586V40.1988Z" fill="white"/>
<path d="M59.6757 52.1235C59.5698 52.1235 59.4952 52.2287 59.5302 52.3287C59.8394 53.2127 60.6786 53.8473 61.668 53.8473C62.6575 53.8473 63.4967 53.2126 63.8058 52.3287C63.8408 52.2287 63.7663 52.1235 63.6604 52.1235H59.6757Z" fill="white"/>
<path d="M64.2258 49.7943C64.7145 49.7943 65.1107 49.3981 65.1107 48.9093C65.1107 48.4206 64.7145 48.0244 64.2258 48.0244C63.737 48.0244 63.3408 48.4206 63.3408 48.9093C63.3408 49.3981 63.737 49.7943 64.2258 49.7943Z" fill="white"/>
<path d="M59.1105 49.7943C59.5993 49.7943 59.9955 49.3981 59.9955 48.9093C59.9955 48.4206 59.5993 48.0244 59.1105 48.0244C58.6218 48.0244 58.2256 48.4206 58.2256 48.9093C58.2256 49.3981 58.6218 49.7943 59.1105 49.7943Z" fill="white"/>
<path d="M68.3435 47.1829V44.8281C68.3435 41.9289 65.9848 39.5703 63.0857 39.5703H60.2504C57.3513 39.5703 54.9927 41.929 54.9927 44.8281V47.1829C54.1086 47.2819 53.4189 48.0341 53.4189 48.9443V49.5572C53.4189 50.7769 54.1723 51.8326 55.2908 52.2399C55.631 53.3568 56.2505 54.3656 57.0951 55.1737L58.4597 56.4789C59.3594 57.3395 60.5136 57.7697 61.6682 57.7696C62.8224 57.7696 63.9771 57.3393 64.8766 56.4789L66.2411 55.1735C67.0859 54.3655 67.7053 53.3568 68.0455 52.2397C69.1642 51.8324 69.9173 50.7768 69.9173 49.5571V48.9442C69.9172 48.0342 69.2276 47.282 68.3435 47.1829ZM60.2504 41.1816H63.0857C64.4316 41.1816 65.6087 41.9151 66.2405 43.0029C65.9709 42.9215 65.6852 42.8774 65.3895 42.8774H57.9469C57.651 42.8774 57.3655 42.9217 57.0959 43.0029C57.7275 41.9151 58.9046 41.1816 60.2504 41.1816ZM68.3059 49.5572C68.3059 50.1442 67.9056 50.6441 67.3324 50.773C66.9589 50.8571 66.6683 51.1432 66.5736 51.5197C66.3343 52.4722 65.8342 53.3331 65.1273 54.0092L63.7626 55.3146C62.588 56.4382 60.748 56.438 59.5735 55.3146L58.2088 54.0093C57.5018 53.3331 57.0018 52.4722 56.7627 51.5208C56.6685 51.1439 56.3776 50.8574 56.0034 50.7732C55.4394 50.6464 55.0302 50.135 55.0302 49.5574V48.9445C55.0302 48.8556 55.1025 48.7833 55.1913 48.7833H55.6908C56.1943 48.7833 56.6039 48.3737 56.6039 47.8703V45.8316C56.6039 45.0911 57.2062 44.4888 57.9467 44.4888H65.3893C66.1297 44.4888 66.7321 45.0911 66.7321 45.8316V47.8703C66.7321 48.3737 67.1417 48.7833 67.6451 48.7833H68.1447C68.2335 48.7833 68.3058 48.8556 68.3058 48.9445V49.5572H68.3059Z" fill="white"/>
</g>
<defs>
<linearGradient id="paint0_linear" x1="6.94167" y1="40.3529" x2="98.33" y2="41.9785" gradientUnits="userSpaceOnUse">
<stop stop-color="#39BC90"/>
<stop offset="1" stop-color="#25ABA4"/>
</linearGradient>
<clipPath id="clip0">
<rect width="55" height="55" fill="white" transform="translate(22 22)"/>
</clipPath>
</defs>
</svg>
