<svg width="98" height="98" viewBox="0 0 98 98" fill="none" xmlns="http://www.w3.org/2000/svg">
<circle cx="49" cy="49" r="49" fill="url(#paint0_linear)"/>
<path d="M76.5753 70.8785L75.7906 70.0937C75.476 69.779 74.9659 69.7791 74.6513 70.0936C74.3366 70.4083 74.3366 70.9184 74.6512 71.2329L75.3219 71.9037L71.9039 75.3218L66.093 69.511L69.5111 66.0929L72.222 68.8038C72.5367 69.1183 73.0468 69.1183 73.3614 68.8038C73.676 68.4891 73.676 67.979 73.3614 67.6644L70.0822 64.3853C70.0817 64.3848 70.0813 64.3843 70.0808 64.3837L67.8021 62.105C67.8015 62.1043 67.8008 62.1039 67.8002 62.1033L65.7891 60.0922C65.5152 59.8182 65.151 59.6673 64.7636 59.6673C64.3761 59.6673 64.0119 59.8182 63.7381 60.092L63.6241 60.2061L60.7413 57.3225C62.8018 54.748 64.2901 51.6971 65.0124 48.3637H70.6891C71.1341 48.3637 71.4947 48.0031 71.4947 47.558C71.4947 47.113 71.1341 46.7524 70.6891 46.7524H65.298C65.369 46.24 65.4221 45.722 65.4566 45.1989H74.5293C74.9743 45.1989 75.335 44.8383 75.335 44.3933C75.335 43.9482 74.9743 43.5876 74.5293 43.5876H65.5041C65.5003 43.0663 65.4787 42.5483 65.4392 42.0341H70.6892C71.1342 42.0341 71.4948 41.6735 71.4948 41.2284C71.4948 40.7834 71.1342 40.4227 70.6892 40.4227H65.2551C64.6922 36.7189 63.1869 33.2544 60.8182 30.2618C60.542 29.913 60.0354 29.8542 59.6864 30.1301C59.3376 30.4063 59.2786 30.913 59.5547 31.2619C62.3938 34.8486 63.8945 39.1679 63.8945 43.7529C63.8945 54.8591 54.8591 63.8945 43.7529 63.8945C32.6468 63.8945 23.6113 54.8591 23.6113 43.7529C23.6113 32.6468 32.6468 23.6113 43.7529 23.6113C48.7736 23.6113 53.5832 25.4695 57.2955 28.8435C57.6246 29.143 58.1345 29.1185 58.4335 28.7893C58.7328 28.46 58.7085 27.9504 58.3792 27.6511C54.3698 24.007 49.1754 22 43.7529 22C31.7583 22 22 31.7583 22 43.7529C22 54.3428 29.607 63.1878 39.6433 65.1147V70.5502C39.6433 70.9952 40.0039 71.3558 40.449 71.3558C40.894 71.3558 41.2546 70.9952 41.2546 70.5502V65.3616C41.7673 65.4205 42.2853 65.4617 42.8082 65.4842V74.3389C42.8082 74.784 43.1688 75.1446 43.6138 75.1446C44.0589 75.1446 44.4195 74.784 44.4195 74.3389V65.4947C44.942 65.4789 45.4602 65.4456 45.973 65.3934V70.5502C45.973 70.9952 46.3336 71.3558 46.7787 71.3558C47.2237 71.3558 47.5843 70.9952 47.5843 70.5502V65.1679C51.222 64.5189 54.5485 62.9617 57.3226 60.7413L60.2062 63.6243L60.0923 63.7381C59.8183 64.0121 59.6674 64.3762 59.6674 64.7637C59.6674 65.1512 59.8183 65.5153 60.0921 65.7891L62.1039 67.8008C62.1043 67.8013 62.1047 67.8017 62.1051 67.8021L64.3838 70.0808C64.3843 70.0813 64.3849 70.0817 64.3853 70.0822L70.8782 76.575C71.1522 76.8492 71.5163 77 71.9038 77C72.2913 77 72.6553 76.8492 72.9294 76.5753L76.5753 72.9294C76.8492 72.6553 77 72.2913 77 71.9038C77 71.5163 76.8492 71.1522 76.5753 70.8785ZM59.6859 58.5458L62.4846 61.3452L61.3453 62.4845L58.5459 59.6857C58.9397 59.32 59.32 58.9397 59.6859 58.5458ZM64.9536 68.3717L63.8142 67.2323L67.2322 63.8143L68.3716 64.9537L64.9536 68.3717ZM64.7637 61.3455L66.0929 62.6748L62.6749 66.0928L61.3456 64.7636L64.7637 61.3455Z" fill="white"/>
<path d="M32.5334 58.5011C35.7603 60.9266 39.6367 62.2344 43.753 62.2832C53.9706 62.2832 62.2833 53.9706 62.2833 43.7529C62.2833 33.5353 53.9706 25.2227 43.753 25.2227C38.822 25.2227 34.1841 27.1527 30.6938 30.6572C27.2183 34.1468 25.2753 38.7947 25.2227 43.7443C25.1744 48.3011 26.8301 52.6809 29.8847 56.0769C30.1823 56.4077 30.6917 56.4347 31.0225 56.1372C31.3534 55.8396 31.3803 55.3301 31.0828 54.9994C28.2988 51.9043 26.7899 47.9133 26.834 43.7615C26.8821 39.2344 28.6583 34.9844 31.8355 31.7944C35.0212 28.5956 39.2535 26.834 43.753 26.834C53.0821 26.834 60.6719 34.4238 60.6719 43.7529C60.6719 53.0821 53.0821 60.6719 43.7625 60.672C40.0007 60.6273 36.4526 59.4312 33.5015 57.2131C33.146 56.9455 32.6407 57.0174 32.3735 57.3731C32.106 57.7287 32.1776 58.2338 32.5334 58.5011Z" fill="white"/>
<path d="M46.8146 29.3584H41.2287C40.5475 29.3584 39.9933 29.9126 39.9933 30.5938V33.4404H34.7834C34.1022 33.4404 33.548 33.9946 33.548 34.6758V43.3232H32.4697C32.0247 43.3232 31.6641 43.6839 31.6641 44.1289C31.6641 44.574 32.0247 44.9346 32.4697 44.9346H55.5736C56.0186 44.9346 56.3793 44.574 56.3793 44.1289C56.3793 43.6839 56.0186 43.3232 55.5736 43.3232H54.4953V38.7578C54.4953 38.0767 53.9411 37.5225 53.2599 37.5225H48.05V30.5938C48.05 29.9126 47.4958 29.3584 46.8146 29.3584ZM35.1594 35.0518H39.9933V43.3232H35.1594V35.0518ZM41.6047 30.9697H46.4387V43.3232H41.6047V30.9697ZM52.884 39.1338V43.3232H48.05V39.1338H52.884Z" fill="white"/>
<path d="M53.0451 51.7615H49.2521L47.5291 47.3569C47.4073 47.0457 47.1088 46.8443 46.7716 46.8447C46.4373 46.8477 46.1396 47.0569 46.0233 47.3703L43.6687 53.7199L42.0229 49.0554C41.9177 48.7567 41.6472 48.5475 41.3316 48.5206C41.0164 48.4933 40.7141 48.6542 40.5596 48.9305L38.9793 51.7614H35.1963C34.7512 51.7614 34.3906 52.122 34.3906 52.5671C34.3906 53.0121 34.7512 53.3728 35.1963 53.3728H39.4521C39.7441 53.3728 40.0133 53.2147 40.1556 52.9598L41.097 51.2738L42.89 56.356C43.0029 56.676 43.304 56.8908 43.6433 56.8936H43.6499C43.9864 56.8936 44.2879 56.6841 44.4051 56.368L46.7988 49.9132L47.9518 52.8607C48.0726 53.1695 48.3703 53.3729 48.702 53.3729H53.0451C53.4901 53.3729 53.8507 53.0122 53.8507 52.5672C53.8507 52.1221 53.4901 51.7615 53.0451 51.7615Z" fill="white"/>
<defs>
<linearGradient id="paint0_linear" x1="6.94167" y1="40.3529" x2="98.33" y2="41.9785" gradientUnits="userSpaceOnUse">
<stop stop-color="#39BC90"/>
<stop offset="1" stop-color="#25ABA4"/>
</linearGradient>
</defs>
</svg>
