<svg width="175" height="175" viewBox="0 0 175 175" fill="none" xmlns="http://www.w3.org/2000/svg">
<g filter="url(#filter0_d)">
<circle cx="87.5" cy="67.5" r="64.5" fill="#00918C"/>
</g>
<path d="M107.891 73.2031C108.193 73.2031 108.483 73.083 108.697 72.869C108.911 72.6551 109.031 72.365 109.031 72.0625V70.9219C109.031 70.6194 108.911 70.3292 108.697 70.1153C108.483 69.9014 108.193 69.7812 107.891 69.7812C107.588 69.7812 107.298 69.9014 107.084 70.1153C106.87 70.3292 106.75 70.6194 106.75 70.9219V72.0625C106.75 72.365 106.87 72.6551 107.084 72.869C107.298 73.083 107.588 73.2031 107.891 73.2031Z" fill="#F7F7F7"/>
<path d="M103.328 73.2031C103.631 73.2031 103.921 73.083 104.135 72.869C104.349 72.6551 104.469 72.365 104.469 72.0625V70.9219C104.469 70.6194 104.349 70.3292 104.135 70.1153C103.921 69.9014 103.631 69.7812 103.328 69.7812C103.026 69.7812 102.735 69.9014 102.522 70.1153C102.308 70.3292 102.188 70.6194 102.188 70.9219V72.0625C102.188 72.365 102.308 72.6551 102.522 72.869C102.735 73.083 103.026 73.2031 103.328 73.2031Z" fill="#F7F7F7"/>
<path d="M107.084 75.8182C106.692 76.2087 106.162 76.428 105.609 76.428C105.056 76.428 104.526 76.2087 104.134 75.8182C103.919 75.6105 103.631 75.4955 103.332 75.4981C103.033 75.5007 102.747 75.6206 102.535 75.8321C102.324 76.0436 102.204 76.3297 102.201 76.6288C102.199 76.9278 102.314 77.216 102.521 77.4311C103.341 78.2492 104.451 78.7087 105.609 78.7087C106.767 78.7087 107.877 78.2492 108.697 77.4311C108.904 77.216 109.019 76.9278 109.017 76.6288C109.014 76.3297 108.894 76.0436 108.683 75.8321C108.471 75.6206 108.185 75.5007 107.886 75.4981C107.587 75.4955 107.299 75.6105 107.084 75.8182Z" fill="#F7F7F7"/>
<path d="M114.734 84.6094H111.312C111.01 84.6094 110.72 84.4892 110.506 84.2753C110.292 84.0614 110.172 83.7713 110.172 83.4688V82.0316C111.227 81.2959 112.088 80.3166 112.684 79.1769C113.28 78.0371 113.592 76.7704 113.594 75.4844C114.5 75.4817 115.369 75.1203 116.01 74.4791C116.651 73.838 117.013 72.9692 117.016 72.0625V70.9219C117.014 70.4434 116.912 69.9705 116.715 69.5342C116.519 69.0979 116.232 68.708 115.875 68.3897V62.9375C115.875 61.4249 115.274 59.9743 114.204 58.9048C113.135 57.8352 111.684 57.2344 110.172 57.2344V55.455L111.963 56.4131C112.561 56.8145 113.258 57.0447 113.977 57.0788C114.697 57.113 115.412 56.9499 116.046 56.607C116.664 56.2751 117.184 55.7867 117.554 55.1907C117.924 54.5947 118.13 53.912 118.154 53.2109C118.177 52.5098 118.015 51.815 117.685 51.196C117.356 50.5769 116.869 50.0553 116.274 49.6834L86.7662 33.4181C86.5977 33.3283 86.4096 33.2812 86.2187 33.2812C86.0277 33.2812 85.8397 33.3283 85.6712 33.4181L56.0833 49.7291C55.5041 50.111 55.0339 50.6368 54.7188 51.2549C54.4036 51.873 54.2542 52.5623 54.2853 53.2555C54.3163 53.9486 54.5267 54.6218 54.8958 55.2093C55.265 55.7967 55.7803 56.2784 56.3913 56.607C56.9817 56.92 57.6394 57.0845 58.3076 57.0861C59.0455 57.0927 59.7686 56.8782 60.3835 56.4702L62.2655 55.455V78.9062H60.5432C60.0307 78.906 59.5248 79.0209 59.0627 79.2424C58.6005 79.4639 58.1941 79.7864 57.8733 80.186C57.5525 80.5857 57.3255 81.0522 57.2092 81.5513C57.0929 82.0504 57.0901 82.5692 57.2012 83.0695L60.7599 99.0383C60.9236 99.7992 61.3439 100.481 61.9502 100.969C62.5566 101.457 63.3122 101.722 64.0905 101.719H121.578C121.881 101.719 122.171 101.599 122.385 101.385C122.598 101.171 122.719 100.881 122.719 100.578V92.5938C122.716 90.4769 121.874 88.4474 120.377 86.9506C118.881 85.4538 116.851 84.6118 114.734 84.6094ZM110.765 86.8336C110.122 87.5681 109.329 88.1567 108.44 88.56C107.551 88.9633 106.586 89.1719 105.609 89.1719C104.633 89.1719 103.668 88.9633 102.779 88.56C101.89 88.1567 101.097 87.5681 100.454 86.8336C101.255 86.7061 101.984 86.2974 102.511 85.6807C103.037 85.064 103.327 84.2798 103.328 83.4688V83.138C104.817 83.579 106.402 83.579 107.891 83.138V83.4688C107.891 84.2798 108.181 85.064 108.708 85.6807C109.235 86.2974 109.964 86.7061 110.765 86.8336ZM111.312 75.4844C111.312 76.9969 110.712 78.4476 109.642 79.5171C108.572 80.5866 107.122 81.1875 105.609 81.1875C104.097 81.1875 102.646 80.5866 101.577 79.5171C100.507 78.4476 99.9062 76.9969 99.9062 75.4844L99.9974 67.5C100.897 67.498 101.783 67.2871 102.587 66.8841L103.328 66.4963L103.99 66.8498C104.808 67.273 105.715 67.4958 106.636 67.5H111.312V75.4844ZM114.734 70.9219V72.0625C114.734 72.365 114.614 72.6551 114.4 72.869C114.186 73.083 113.896 73.2031 113.594 73.2031V69.7812C113.896 69.7812 114.186 69.9014 114.4 70.1153C114.614 70.3292 114.734 70.6194 114.734 70.9219ZM113.594 62.9375V67.5C113.592 66.8955 113.351 66.3163 112.924 65.8889C112.496 65.4615 111.917 65.2206 111.312 65.2188H106.636C106.084 65.2163 105.541 65.0834 105.05 64.8309L103.864 64.2036C103.702 64.1196 103.522 64.0758 103.339 64.0758C103.157 64.0758 102.977 64.1196 102.815 64.2036L101.549 64.8423C101.041 65.1015 100.476 65.2308 99.9062 65.2188C99.3017 65.2206 98.7225 65.4615 98.2951 65.8889C97.8676 66.3163 97.6267 66.8955 97.6249 67.5V62.9375C97.6267 62.333 97.8676 61.7538 98.2951 61.3264C98.7225 60.899 99.3017 60.6581 99.9062 60.6562H101.047C101.349 60.6562 101.639 60.7764 101.853 60.9903C102.067 61.2042 102.187 61.4944 102.187 61.7969C102.187 62.0994 102.308 62.3895 102.521 62.6034C102.735 62.8173 103.026 62.9375 103.328 62.9375C103.631 62.9375 103.921 62.8173 104.135 62.6034C104.348 62.3895 104.469 62.0994 104.469 61.7969V60.6562C104.469 60.3537 104.589 60.0636 104.803 59.8497C105.017 59.6358 105.307 59.5156 105.609 59.5156H110.172C111.078 59.5183 111.947 59.8797 112.588 60.5209C113.23 61.162 113.591 62.0308 113.594 62.9375ZM59.2201 54.5197C58.9615 54.6915 58.661 54.7897 58.3508 54.8038C58.0407 54.8178 57.7326 54.7472 57.4595 54.5995C57.1864 54.4519 56.9586 54.2327 56.8006 53.9654C56.6425 53.6982 56.5602 53.393 56.5624 53.0825C56.5584 52.8118 56.6195 52.544 56.7406 52.3018C56.8617 52.0597 57.0392 51.8501 57.2582 51.6909L86.2187 35.7222L115.099 51.6453C115.348 51.8091 115.55 52.0345 115.686 52.2996C115.821 52.5647 115.886 52.8604 115.873 53.158C115.861 53.4555 115.771 53.7447 115.614 53.9973C115.456 54.25 115.236 54.4575 114.974 54.5995C114.683 54.7479 114.357 54.8136 114.031 54.7894C113.705 54.7653 113.392 54.6523 113.126 54.4627L86.7548 40.2619C86.5904 40.172 86.406 40.1249 86.2187 40.1249C86.0313 40.1249 85.847 40.172 85.6826 40.2619L59.2201 54.5197ZM64.0905 99.4375C63.8319 99.4392 63.5806 99.3516 63.379 99.1896C63.1774 99.0275 63.038 98.8008 62.9841 98.5478L59.4368 82.5791C59.3975 82.4116 59.3965 82.2374 59.434 82.0695C59.4716 81.9016 59.5466 81.7443 59.6535 81.6095C59.762 81.4785 59.8979 81.3729 60.0516 81.3C60.2053 81.2271 60.3731 81.1887 60.5432 81.1875H85.5343C85.7929 81.1858 86.0443 81.2733 86.2458 81.4354C86.4474 81.5975 86.5869 81.8242 86.6407 82.0772L90.496 99.4375H64.0905ZM90.2223 87.6891L88.8649 81.5867C88.7012 80.8258 88.281 80.1443 87.6746 79.6563C87.0682 79.1683 86.3126 78.9035 85.5343 78.9062H64.5468V54.782C64.5442 54.6123 64.5053 54.445 64.4327 54.2916L86.2187 42.5659L107.891 54.2231V57.2344H105.609C105.034 57.2346 104.468 57.3801 103.963 57.6572C103.459 57.9343 103.032 58.3342 102.724 58.8198C102.213 58.5268 101.635 58.3733 101.047 58.375H99.9062C98.6961 58.375 97.5356 58.8557 96.68 59.7113C95.8243 60.567 95.3437 61.7274 95.3437 62.9375V68.3897C94.9863 68.708 94.7001 69.0979 94.5035 69.5342C94.307 69.9705 94.2046 70.4434 94.203 70.9219V72.0625C94.2057 72.9692 94.5671 73.838 95.2083 74.4791C95.8494 75.1203 96.7182 75.4817 97.6249 75.4844C97.6267 76.7704 97.9387 78.0371 98.5344 79.1769C99.1301 80.3166 99.9919 81.2959 101.047 82.0316V83.4688C101.047 83.7713 100.927 84.0614 100.713 84.2753C100.499 84.4892 100.209 84.6094 99.9062 84.6094H96.4843C95.2761 84.6186 94.0855 84.9003 93.0013 85.4335C91.9171 85.9668 90.9671 86.7377 90.2223 87.6891ZM97.6249 69.7812V73.2031C97.3224 73.2031 97.0323 73.083 96.8184 72.869C96.6045 72.6551 96.4843 72.365 96.4843 72.0625V70.9219C96.4843 70.6194 96.6045 70.3292 96.8184 70.1153C97.0323 69.9014 97.3224 69.7812 97.6249 69.7812ZM102.187 99.4375H92.8343L92.3324 97.1562H104.469C104.467 97.7607 104.226 98.3399 103.799 98.7673C103.371 99.1948 102.792 99.4357 102.187 99.4375ZM120.437 99.4375H115.875V93.7344C115.875 93.4319 115.755 93.1417 115.541 92.9278C115.327 92.7139 115.037 92.5938 114.734 92.5938C114.432 92.5938 114.142 92.7139 113.928 92.9278C113.714 93.1417 113.594 93.4319 113.594 93.7344V99.4375H106.111C106.526 98.7487 106.747 97.9604 106.75 97.1562V96.0156C106.75 95.7131 106.63 95.423 106.416 95.2091C106.202 94.9952 105.912 94.875 105.609 94.875H91.8191L90.9865 91.1223C91.3135 89.9125 92.0284 88.8434 93.0215 88.079C94.0146 87.3146 95.2311 86.8971 96.4843 86.8906H97.739C98.5327 88.2769 99.6786 89.429 101.061 90.2302C102.443 91.0315 104.012 91.4534 105.609 91.4534C107.207 91.4534 108.776 91.0315 110.158 90.2302C111.54 89.429 112.686 88.2769 113.48 86.8906H114.734C116.247 86.8906 117.697 87.4915 118.767 88.561C119.837 89.6306 120.437 91.0812 120.437 92.5938V99.4375Z" fill="#F7F7F7"/>
<path d="M74.8115 93.7344C74.1347 93.7344 73.4732 93.5337 72.9104 93.1577C72.3477 92.7817 71.9091 92.2473 71.6501 91.622C71.3911 90.9967 71.3234 90.3087 71.4554 89.6449C71.5874 88.9811 71.9133 88.3714 72.3919 87.8929C72.8705 87.4143 73.4802 87.0884 74.1439 86.9564C74.8077 86.8243 75.4958 86.8921 76.121 87.1511C76.7463 87.4101 77.2807 87.8487 77.6567 88.4114C78.0327 88.9741 78.2334 89.6357 78.2334 90.3125C78.2334 91.22 77.8729 92.0904 77.2312 92.7321C76.5894 93.3739 75.7191 93.7344 74.8115 93.7344ZM74.8115 89.1719C74.5859 89.1719 74.3654 89.2388 74.1778 89.3641C73.9903 89.4894 73.8441 89.6676 73.7577 89.876C73.6714 90.0844 73.6488 90.3138 73.6928 90.535C73.7368 90.7563 73.8455 90.9595 74.005 91.119C74.1645 91.2786 74.3677 91.3872 74.589 91.4312C74.8103 91.4752 75.0396 91.4526 75.248 91.3663C75.4564 91.28 75.6346 91.1338 75.7599 90.9462C75.8853 90.7586 75.9521 90.5381 75.9521 90.3125C75.9521 90.01 75.832 89.7199 75.6181 89.506C75.4042 89.292 75.114 89.1719 74.8115 89.1719Z" fill="#F7F7F7"/>
<path d="M70.25 72.0625H76.6911L82.052 76.3729C82.2535 76.5351 82.5041 76.624 82.7627 76.625C83.0636 76.625 83.3523 76.5061 83.566 76.2942C83.7796 76.0822 83.9009 75.7944 83.9033 75.4935L83.9284 72.0625H88.5C89.4075 72.0625 90.2779 71.702 90.9196 71.0603C91.5614 70.4185 91.9219 69.5482 91.9219 68.6406V57.2344C91.9219 56.3268 91.5614 55.4565 90.9196 54.8147C90.2779 54.173 89.4075 53.8125 88.5 53.8125H70.25C69.3425 53.8125 68.4721 54.173 67.8304 54.8147C67.1886 55.4565 66.8281 56.3268 66.8281 57.2344V68.6406C66.8281 69.5482 67.1886 70.4185 67.8304 71.0603C68.4721 71.702 69.3425 72.0625 70.25 72.0625ZM69.1094 57.2344C69.1094 56.9319 69.2295 56.6417 69.4435 56.4278C69.6574 56.2139 69.9475 56.0938 70.25 56.0938H88.5C88.8025 56.0938 89.0926 56.2139 89.3065 56.4278C89.5205 56.6417 89.6406 56.9319 89.6406 57.2344V68.6406C89.6406 68.9431 89.5205 69.2333 89.3065 69.4472C89.0926 69.6611 88.8025 69.7812 88.5 69.7812H82.7969C82.4959 69.7812 82.2072 69.9002 81.9935 70.1121C81.7799 70.324 81.6587 70.6118 81.6562 70.9128L81.6391 73.1164L77.8089 70.0367C77.6067 69.8724 77.3543 69.7822 77.0937 69.7812H70.25C69.9475 69.7812 69.6574 69.6611 69.4435 69.4472C69.2295 69.2333 69.1094 68.9431 69.1094 68.6406V57.2344Z" fill="#F7F7F7"/>
<path d="M72.5312 60.6562H73.6719C73.9744 60.6562 74.2645 60.5361 74.4784 60.3222C74.6923 60.1083 74.8125 59.8181 74.8125 59.5156C74.8125 59.2131 74.6923 58.923 74.4784 58.7091C74.2645 58.4952 73.9744 58.375 73.6719 58.375H72.5312C72.2287 58.375 71.9386 58.4952 71.7247 58.7091C71.5108 58.923 71.3906 59.2131 71.3906 59.5156C71.3906 59.8181 71.5108 60.1083 71.7247 60.3222C71.9386 60.5361 72.2287 60.6562 72.5312 60.6562Z" fill="#F7F7F7"/>
<path d="M77.0938 60.6562H86.2188C86.5213 60.6562 86.8114 60.5361 87.0253 60.3222C87.2392 60.1083 87.3594 59.8181 87.3594 59.5156C87.3594 59.2131 87.2392 58.923 87.0253 58.7091C86.8114 58.4952 86.5213 58.375 86.2188 58.375H77.0938C76.7912 58.375 76.5011 58.4952 76.2872 58.7091C76.0733 58.923 75.9531 59.2131 75.9531 59.5156C75.9531 59.8181 76.0733 60.1083 76.2872 60.3222C76.5011 60.5361 76.7912 60.6562 77.0938 60.6562Z" fill="#F7F7F7"/>
<path d="M77.0938 64.0781H86.2188C86.5213 64.0781 86.8114 63.958 87.0253 63.744C87.2392 63.5301 87.3594 63.24 87.3594 62.9375C87.3594 62.635 87.2392 62.3449 87.0253 62.131C86.8114 61.917 86.5213 61.7969 86.2188 61.7969H77.0938C76.7912 61.7969 76.5011 61.917 76.2872 62.131C76.0733 62.3449 75.9531 62.635 75.9531 62.9375C75.9531 63.24 76.0733 63.5301 76.2872 63.744C76.5011 63.958 76.7912 64.0781 77.0938 64.0781Z" fill="#F7F7F7"/>
<path d="M72.5312 64.0781H73.6719C73.9744 64.0781 74.2645 63.958 74.4784 63.744C74.6923 63.5301 74.8125 63.24 74.8125 62.9375C74.8125 62.635 74.6923 62.3449 74.4784 62.131C74.2645 61.917 73.9744 61.7969 73.6719 61.7969H72.5312C72.2287 61.7969 71.9386 61.917 71.7247 62.131C71.5108 62.3449 71.3906 62.635 71.3906 62.9375C71.3906 63.24 71.5108 63.5301 71.7247 63.744C71.9386 63.958 72.2287 64.0781 72.5312 64.0781Z" fill="#F7F7F7"/>
<path d="M72.5312 67.5H73.6719C73.9744 67.5 74.2645 67.3798 74.4784 67.1659C74.6923 66.952 74.8125 66.6619 74.8125 66.3594C74.8125 66.0569 74.6923 65.7667 74.4784 65.5528C74.2645 65.3389 73.9744 65.2188 73.6719 65.2188H72.5312C72.2287 65.2188 71.9386 65.3389 71.7247 65.5528C71.5108 65.7667 71.3906 66.0569 71.3906 66.3594C71.3906 66.6619 71.5108 66.952 71.7247 67.1659C71.9386 67.3798 72.2287 67.5 72.5312 67.5Z" fill="#F7F7F7"/>
<path d="M77.0938 67.5H86.2188C86.5213 67.5 86.8114 67.3798 87.0253 67.1659C87.2392 66.952 87.3594 66.6619 87.3594 66.3594C87.3594 66.0569 87.2392 65.7667 87.0253 65.5528C86.8114 65.3389 86.5213 65.2188 86.2188 65.2188H77.0938C76.7912 65.2188 76.5011 65.3389 76.2872 65.5528C76.0733 65.7667 75.9531 66.0569 75.9531 66.3594C75.9531 66.6619 76.0733 66.952 76.2872 67.1659C76.5011 67.3798 76.7912 67.5 77.0938 67.5Z" fill="#F7F7F7"/>
<defs>
<filter id="filter0_d" x="0" y="0" width="175" height="175" filterUnits="userSpaceOnUse" color-interpolation-filters="sRGB">
<feFlood flood-opacity="0" result="BackgroundImageFix"/>
<feColorMatrix in="SourceAlpha" type="matrix" values="0 0 0 0 0 0 0 0 0 0 0 0 0 0 0 0 0 0 127 0"/>
<feOffset dy="20"/>
<feGaussianBlur stdDeviation="11.5"/>
<feColorMatrix type="matrix" values="0 0 0 0 0 0 0 0 0 0.568627 0 0 0 0 0.54902 0 0 0 0.25 0"/>
<feBlend mode="normal" in2="BackgroundImageFix" result="effect1_dropShadow"/>
<feBlend mode="normal" in="SourceGraphic" in2="effect1_dropShadow" result="shape"/>
</filter>
</defs>
</svg>
