<svg width="175" height="175" viewBox="0 0 175 175" fill="none" xmlns="http://www.w3.org/2000/svg">
<g filter="url(#filter0_d)">
<circle cx="87.5" cy="67.5" r="64.5" fill="#F35828"/>
</g>
<path d="M120.577 72.0615H113.733V51.5303C113.733 51.2278 113.613 50.9377 113.399 50.7237C113.185 50.5098 112.895 50.3897 112.593 50.3896H110.312V41.2646C110.312 40.9621 110.191 40.672 109.977 40.4581C109.764 40.2442 109.473 40.124 109.171 40.124H106.89V37.8428C106.89 37.5403 106.769 37.2502 106.556 37.0362C106.342 36.8223 106.052 36.7022 105.749 36.7021H103.149L102.269 34.0601C102.193 33.833 102.048 33.6355 101.853 33.4955C101.659 33.3556 101.426 33.2803 101.187 33.2803H89.7803C89.5409 33.2803 89.3075 33.3556 89.1133 33.4955C88.9191 33.6355 88.7739 33.833 88.6981 34.0601L87.8175 36.7021H85.2178C84.9153 36.7022 84.6252 36.8223 84.4112 37.0362C84.1973 37.2502 84.0772 37.5403 84.0771 37.8428V40.124H81.7959C81.4934 40.124 81.2033 40.2442 80.9894 40.4581C80.7755 40.672 80.6553 40.9621 80.6553 41.2646V50.3896H78.374C78.0715 50.3897 77.7814 50.5098 77.5675 50.7237C77.3536 50.9377 77.2334 51.2278 77.2334 51.5303V54.9521H79.5146V52.6709H111.452V72.0615H104.608C104.306 72.0615 104.016 72.1817 103.802 72.3956C103.588 72.6095 103.468 72.8996 103.468 73.2021V78.9053H92.0615V81.1865H103.468V83.4678H92.0615V85.749H103.468V99.4365H101.187V89.1709C101.187 88.8684 101.066 88.5783 100.852 88.3644C100.639 88.1505 100.348 88.0303 100.046 88.0303H92.0615V90.3115H94.3428V99.4365H92.0615V94.874H89.7803V99.4365H88.6396V101.718H120.577C120.88 101.718 121.17 101.598 121.384 101.384C121.598 101.17 121.718 100.88 121.718 100.577V73.2021C121.718 72.8996 121.598 72.6095 121.384 72.3956C121.17 72.1817 120.88 72.0615 120.577 72.0615ZM90.6023 35.5615H100.364L100.745 36.7021H90.2222L90.6023 35.5615ZM86.3584 38.9834H104.608V40.124H86.3584V38.9834ZM82.9365 42.4053H108.03V50.3896H105.749V45.8271C105.749 45.5246 105.629 45.2345 105.415 45.0206C105.201 44.8067 104.911 44.6865 104.608 44.6865H86.3584C86.0559 44.6865 85.7658 44.8067 85.5519 45.0206C85.338 45.2345 85.2178 45.5246 85.2178 45.8271V50.3896H82.9365V42.4053ZM92.0615 46.9678H94.3428V50.3896H92.0615V46.9678ZM89.7803 50.3896H87.499V46.9678H89.7803V50.3896ZM96.624 46.9678H98.9053V50.3896H96.624V46.9678ZM101.187 46.9678H103.468V50.3896H101.187V46.9678ZM119.437 74.3428V76.624H105.749V74.3428H119.437ZM96.624 90.3115H98.9053V99.4365H96.624V90.3115ZM105.749 99.4365V78.9053H119.437V99.4365H105.749Z" fill="#FCFCFC"/>
<path d="M116.015 81.1865H109.171C108.868 81.1865 108.578 81.3067 108.364 81.5206C108.15 81.7345 108.03 82.0246 108.03 82.3271V96.0146C108.03 96.3172 108.15 96.6073 108.364 96.8212C108.578 97.0351 108.868 97.1553 109.171 97.1553H116.015C116.317 97.1553 116.607 97.0351 116.821 96.8212C117.035 96.6073 117.155 96.3172 117.155 96.0146V82.3271C117.155 82.0246 117.035 81.7345 116.821 81.5206C116.607 81.3067 116.317 81.1865 116.015 81.1865ZM114.874 94.874H110.312V83.4678H114.874V94.874Z" fill="#FCFCFC"/>
<path d="M82.9365 56.0928H85.2178V58.374H82.9365V56.0928Z" fill="#FCFCFC"/>
<path d="M87.499 56.0928H89.7803V58.374H87.499V56.0928Z" fill="#FCFCFC"/>
<path d="M92.0615 56.0928H94.3428V58.374H92.0615V56.0928Z" fill="#FCFCFC"/>
<path d="M96.624 56.0928H98.9053V58.374H96.624V56.0928Z" fill="#FCFCFC"/>
<path d="M101.187 56.0928H103.468V58.374H101.187V56.0928Z" fill="#FCFCFC"/>
<path d="M105.749 56.0928H108.03V58.374H105.749V56.0928Z" fill="#FCFCFC"/>
<path d="M82.9365 60.6553H85.2178V62.9365H82.9365V60.6553Z" fill="#FCFCFC"/>
<path d="M87.499 60.6553H89.7803V62.9365H87.499V60.6553Z" fill="#FCFCFC"/>
<path d="M92.0615 60.6553H94.3428V62.9365H92.0615V60.6553Z" fill="#FCFCFC"/>
<path d="M96.624 60.6553H98.9053V62.9365H96.624V60.6553Z" fill="#FCFCFC"/>
<path d="M101.187 60.6553H103.468V62.9365H101.187V60.6553Z" fill="#FCFCFC"/>
<path d="M105.749 60.6553H108.03V62.9365H105.749V60.6553Z" fill="#FCFCFC"/>
<path d="M82.9365 65.2178H85.2178V67.499H82.9365V65.2178Z" fill="#FCFCFC"/>
<path d="M87.499 65.2178H89.7803V67.499H87.499V65.2178Z" fill="#FCFCFC"/>
<path d="M92.0615 65.2178H94.3428V67.499H92.0615V65.2178Z" fill="#FCFCFC"/>
<path d="M96.624 65.2178H98.9053V67.499H96.624V65.2178Z" fill="#FCFCFC"/>
<path d="M101.187 65.2178H103.468V67.499H101.187V65.2178Z" fill="#FCFCFC"/>
<path d="M89.7803 69.7803H92.0615V72.0615H89.7803V69.7803Z" fill="#FCFCFC"/>
<path d="M94.3428 69.7803H96.624V72.0615H94.3428V69.7803Z" fill="#FCFCFC"/>
<path d="M98.9053 69.7803H101.187V72.0615H98.9053V69.7803Z" fill="#FCFCFC"/>
<path d="M94.3428 74.3428H96.624V76.624H94.3428V74.3428Z" fill="#FCFCFC"/>
<path d="M98.9053 74.3428H101.187V76.624H98.9053V74.3428Z" fill="#FCFCFC"/>
<path d="M105.749 65.2178H108.03V67.499H105.749V65.2178Z" fill="#FCFCFC"/>
<path d="M89.7803 89.1709V77.7646C89.7782 75.9502 89.0566 74.2106 87.7735 72.9276C86.4905 71.6446 84.751 70.9229 82.9365 70.9209H76.7557C77.0713 70.2018 77.2339 69.4249 77.2334 68.6396V65.3461C77.9385 64.8443 78.5135 64.1812 78.9103 63.412C79.3071 62.6429 79.5143 61.79 79.5146 60.9246V58.374C79.5146 58.0715 79.3945 57.7814 79.1805 57.5675C78.9666 57.3536 78.6765 57.2334 78.374 57.2334H70.3933C69.5174 57.2334 68.6541 57.4416 67.8744 57.8407C67.0948 58.2399 66.4211 58.8185 65.909 59.5291C65.3968 60.2396 65.0609 61.0617 64.9287 61.9275C64.7966 62.7934 64.8721 63.6783 65.1491 64.5092L65.8271 66.5436V68.6396C65.8266 69.4249 65.9893 70.2018 66.3048 70.9209H60.124C58.3096 70.9229 56.57 71.6446 55.287 72.9276C54.004 74.2106 53.2823 75.9502 53.2803 77.7646V85.6304C53.2808 86.9252 53.5917 88.2009 54.1871 89.3507C54.7826 90.5004 55.645 91.4906 56.7021 92.2381V101.718H58.9834V93.3705C59.7606 93.6117 60.5697 93.734 61.3834 93.7334C61.5996 93.7334 61.8153 93.7239 62.0301 93.7068C65.5074 95.9604 69.5632 97.1582 73.707 97.1553H81.7959C82.5685 97.1554 83.337 97.0429 84.0771 96.8215V101.718H86.3584V95.7177C87.4142 94.983 88.2767 94.004 88.8726 92.8641C89.4684 91.7242 89.7798 90.4571 89.7803 89.1709ZM74.9521 68.6396C74.9521 69.5472 74.5916 70.4176 73.9499 71.0593C73.3082 71.701 72.4378 72.0615 71.5303 72.0615C70.6227 72.0615 69.7524 71.701 69.1106 71.0593C68.4689 70.4176 68.1084 69.5472 68.1084 68.6396V66.831L70.2396 64.6998C70.7315 65.2254 71.3264 65.644 71.9874 65.9293C72.6483 66.2147 73.3609 66.3608 74.0808 66.3584C74.3727 66.3582 74.6641 66.3345 74.9521 66.2876V68.6396ZM74.9521 84.6084H77.2334C77.8382 84.6091 78.4181 84.8497 78.8457 85.2773C79.2734 85.705 79.514 86.2848 79.5146 86.8896V88.0303H74.9521V84.6084ZM71.3248 78.9053H71.7358L72.4202 82.3271H70.6404L71.3248 78.9053ZM71.9659 76.624H71.0946L70.6369 75.7086L71.5303 74.8152L72.4236 75.7086L71.9659 76.624ZM67.2437 61.9737C67.4186 61.2709 67.8237 60.6469 68.3946 60.2012C68.9654 59.7555 69.6691 59.5138 70.3933 59.5146H77.2334V60.9246C77.2325 61.7604 76.9 62.5617 76.309 63.1527C75.718 63.7438 74.9166 64.0762 74.0808 64.0771C73.5258 64.079 72.9814 63.9254 72.5093 63.6336C72.0372 63.3418 71.6563 62.9236 71.4098 62.4264C71.329 62.2647 71.2109 62.1246 71.0653 62.0176C70.9197 61.9105 70.7507 61.8396 70.5723 61.8107C70.3939 61.7817 70.2112 61.7956 70.0392 61.8511C69.8672 61.9066 69.7109 62.0022 69.5831 62.1299L67.4662 64.2469L67.3134 63.7878C67.1178 63.2021 67.0936 62.5727 67.2437 61.9737ZM55.5615 85.6304V77.7646C55.5629 76.555 56.044 75.3953 56.8994 74.54C57.7547 73.6847 58.9144 73.2035 60.124 73.2021H68.1084V73.199C68.4626 73.4652 68.8465 73.6893 69.2525 73.8667L66.1612 76.958L67.7744 78.5712L68.9366 77.409L69.1944 77.9248L68.3139 82.3272H63.5459V78.9053H61.2646V83.4678C61.2647 83.7703 61.3848 84.0604 61.5987 84.2743C61.8127 84.4882 62.1028 84.6084 62.4053 84.6084H72.6709V88.3223L63.0565 91.2067C62.1872 91.4674 61.2689 91.5214 60.3751 91.3641C59.4812 91.2069 58.6365 90.8429 57.9084 90.3011C57.1802 89.7594 56.5888 89.0549 56.1813 88.2439C55.7738 87.433 55.5616 86.538 55.5615 85.6304V85.6304ZM73.707 94.874C70.7832 94.8759 67.8979 94.2087 65.2717 92.9237L73.9789 90.3115H80.6553C80.9578 90.3115 81.2479 90.1913 81.4618 89.9774C81.6757 89.7635 81.7959 89.4734 81.7959 89.1709V78.9053H79.5146V82.941C78.8218 82.5383 78.0347 82.3265 77.2334 82.3271H74.7466L73.8661 77.9248L74.124 77.409L75.2862 78.5712L76.8994 76.9581L73.808 73.8667C74.214 73.6893 74.598 73.4652 74.9521 73.199V73.2022H82.9365C84.1461 73.2035 85.3058 73.6847 86.1612 74.54C87.0165 75.3953 87.4976 76.555 87.499 77.7647V89.1709C87.4973 90.6829 86.8959 92.1325 85.8267 93.2017C84.7575 94.2709 83.3079 94.8723 81.7959 94.874L73.707 94.874Z" fill="#FCFCFC"/>
<defs>
<filter id="filter0_d" x="0" y="0" width="175" height="175" filterUnits="userSpaceOnUse" color-interpolation-filters="sRGB">
<feFlood flood-opacity="0" result="BackgroundImageFix"/>
<feColorMatrix in="SourceAlpha" type="matrix" values="0 0 0 0 0 0 0 0 0 0 0 0 0 0 0 0 0 0 127 0"/>
<feOffset dy="20"/>
<feGaussianBlur stdDeviation="11.5"/>
<feColorMatrix type="matrix" values="0 0 0 0 0.952941 0 0 0 0 0.345098 0 0 0 0 0.156863 0 0 0 0.25 0"/>
<feBlend mode="normal" in2="BackgroundImageFix" result="effect1_dropShadow"/>
<feBlend mode="normal" in="SourceGraphic" in2="effect1_dropShadow" result="shape"/>
</filter>
</defs>
</svg>
